<svg width="80" height="70" viewBox="0 0 80 70" fill="none" xmlns="http://www.w3.org/2000/svg">
<path d="M4.85516 0.600006C2.22391 0.600006 0.0551619 2.76876 0.0551619 5.40001V64.45C-0.0448381 64.8188 -0.00733808 65.2063 0.155162 65.55C0.605162 67.7313 2.55516 69.4 4.85516 69.4H67.2552C69.6427 69.4 71.6052 67.6 71.9552 65.3C71.9677 65.2 71.9989 65.1 72.0052 65C72.0052 64.9688 72.0052 64.9313 72.0052 64.9L72.0552 64.65C72.0552 64.6313 72.0552 64.6188 72.0552 64.6L80.0052 21.7L80.0552 21.55V21.4C80.0552 18.7688 77.8864 16.6 75.2552 16.6V11.8C75.2552 9.16876 73.0864 7.00001 70.4552 7.00001H28.9052C28.9114 7.00626 28.8927 7.00001 28.8552 7.00001C28.8052 6.96251 28.6614 6.84376 28.4052 6.55001C28.0114 6.10001 27.5552 5.35001 27.0552 4.55001C26.5552 3.75001 26.0177 2.90001 25.3552 2.15001C24.6927 1.40001 23.7677 0.600006 22.4552 0.600006H4.85516ZM4.85516 3.80001H22.4552C22.3552 3.80001 22.5614 3.80001 22.9552 4.25001C23.3489 4.70001 23.8052 5.45001 24.3052 6.25001C24.8052 7.05001 25.3552 7.90001 26.0052 8.65001C26.6552 9.40001 27.5427 10.2 28.8552 10.2H70.4552C71.3552 10.2 72.0552 10.9 72.0552 11.8V16.6H12.8552C10.3364 16.6 8.33016 18.625 8.15516 21.1H8.10516L8.05516 21.4L3.25516 47.3V5.40001C3.25516 4.50001 3.95516 3.80001 4.85516 3.80001ZM12.8552 19.8H75.2552C76.1552 19.8 76.8552 20.5 76.8552 21.4L69.0052 63.85L68.9552 63.95C68.9364 64.0125 68.9177 64.0813 68.9052 64.15C68.8864 64.2125 68.8677 64.2813 68.8552 64.35C68.8552 64.3813 68.8552 64.4188 68.8552 64.45C68.8552 64.4688 68.8552 64.4813 68.8552 64.5C68.8302 64.5813 68.8177 64.6625 68.8052 64.75C68.7989 64.8 68.8114 64.85 68.8052 64.9C68.7989 64.9688 68.7989 65.0313 68.8052 65.1C68.6052 65.75 67.9864 66.2 67.2552 66.2H4.85516C3.95516 66.2 3.25516 65.5 3.25516 64.6L11.2052 21.7L11.2552 21.55V21.4C11.2552 20.5 11.9552 19.8 12.8552 19.8Z" fill="black"/>
</svg>
